# xmcd
#
# Track frame offsets:
#       150
#       33709
#       56232
#       76916
#       127834
#       164133
#
# Disc length: 2472 seconds
#
# Revision: 1
# Processed by: cddbd v1.5.2PL0 Copyright (c) Steve Scherf et al.
# Submitted via: FreeDbEdit v0.1
#
DISCID=4e09a606
DTITLE=Manny Albam - Jazz Greats of Our Time [CD2]
DYEAR=1959
DGENRE=Jazz
TTITLE0=Am I Blue?
TTITLE1=Home Brew
TTITLE2=My Funny Valentine
TTITLE3=Blues Over Easy
TTITLE4=Blues Over Easy Part 2
TTITLE5=A Little Eye Opener
EXTD=YEAR: 1959
EXTT0=
EXTT1=
EXTT2=
EXTT3=
EXTT4=
EXTT5=
PLAYORDER=
